<svg width="22" height="26" viewBox="0 0 22 26" fill="none" xmlns="http://www.w3.org/2000/svg">
<path d="M18.3434 13.7331C18.3309 11.6232 19.2834 10.033 21.207 8.86044C20.1311 7.31356 18.5036 6.46279 16.3581 6.29882C14.3267 6.13795 12.1042 7.48682 11.2904 7.48682C10.4304 7.48682 8.46372 6.3545 6.91629 6.3545C3.72277 6.40401 0.328888 8.90995 0.328888 14.0084C0.328888 15.5151 0.603242 17.0713 1.15193 18.6738C1.88558 20.7838 4.53039 25.9534 7.28926 25.8699C8.73191 25.8358 9.75223 24.8427 11.6295 24.8427C13.4513 24.8427 14.3945 25.8699 16.0037 25.8699C18.7872 25.8296 21.1792 21.1304 21.8758 19.014C18.143 17.2476 18.3434 13.8414 18.3434 13.7331ZM15.1034 4.29717C16.6663 2.43472 16.5245 0.739363 16.4784 0.129883C15.0974 0.210331 13.5006 1.07347 12.5912 2.13463C11.5894 3.27314 11.0007 4.68079 11.127 6.26788C12.619 6.38236 13.9815 5.61201 15.1034 4.29717Z" fill="white"/>
</svg>
